HIERARCHY
ROOT Hips
{
	OFFSET 0.000000 87.230942 0.000000
	CHANNELS 6 Xposition Yposition Zposition Xrotation Yrotation Zrotation
	JOINT Pelvis
	{
		OFFSET 0.000000 0.000000 0.000000
		CHANNELS 3 Xrotation Yrotation Zrotation
		JOINT LeftUpLeg
		{
			OFFSET 12.017000 -9.376404 -2.439400
			CHANNELS 3 Xrotation Yrotation Zrotation
			JOINT LeftLeg
			{
				OFFSET -0.007312 -32.846973 2.110600
				CHANNELS 3 Xrotation Yrotation Zrotation
				JOINT LeftFoot
				{
					OFFSET 0.007312 -32.065170 -0.570400
					CHANNELS 3 Xrotation Yrotation Zrotation
					JOINT LeftToeBase
					{
						OFFSET 0.728300 -11.045900 13.180700
						CHANNELS 3 Xrotation Yrotation Zrotation
						End Site
						{
							OFFSET 0.000000 17.212589 0.000000
						}
					}
				}
				JOINT LeftPantLeg
				{
					OFFSET 0.002788 -16.709013 -3.143600
					CHANNELS 3 Xrotation Yrotation Zrotation
					End Site
					{
						OFFSET -0.605125 24.528742 0.000000
					}
				}
			}
			JOINT Left_Butt
			{
				OFFSET -6.630234 1.326584 -3.183700
				CHANNELS 3 Xrotation Yrotation Zrotation
				End Site
				{
					OFFSET -0.498041 20.188049 0.000000
				}
			}
		}
		JOINT RightUpLeg
		{
			OFFSET -11.717000 -9.376404 -2.439400
			CHANNELS 3 Xrotation Yrotation Zrotation
			JOINT RightLeg
			{
				OFFSET -0.003241 -32.846912 2.110600
				CHANNELS 3 Xrotation Yrotation Zrotation
				JOINT RightFoot
				{
					OFFSET 0.003241 -32.065136 -0.570500
					CHANNELS 3 Xrotation Yrotation Zrotation
					JOINT RightToeBase
					{
						OFFSET -0.728300 -11.045901 13.180700
						CHANNELS 3 Xrotation Yrotation Zrotation
						End Site
						{
							OFFSET 0.000000 17.212593 0.000000
						}
					}
				}
				JOINT RightPantLeg
				{
					OFFSET 0.008142 -16.708982 -3.143700
					CHANNELS 3 Xrotation Yrotation Zrotation
					End Site
					{
						OFFSET 0.605088 24.528715 0.000000
					}
				}
			}
			JOINT Right_Butt
			{
				OFFSET 6.630732 1.326584 -3.183700
				CHANNELS 3 Xrotation Yrotation Zrotation
				End Site
				{
					OFFSET 0.498015 20.188240 0.000000
				}
			}
		}
	}
	JOINT Spine
	{
		OFFSET -0.062400 7.848404 3.918300
		CHANNELS 3 Xrotation Yrotation Zrotation
		JOINT Spine1
		{
			OFFSET -0.072800 11.422302 0.713400
			CHANNELS 3 Xrotation Yrotation Zrotation
			JOINT Spine2
			{
				OFFSET -0.083200 13.054001 -1.931600
				CHANNELS 3 Xrotation Yrotation Zrotation
				JOINT Neck
				{
					OFFSET -0.092200 14.121796 -5.138800
					CHANNELS 3 Xrotation Yrotation Zrotation
					JOINT Head
					{
						OFFSET 0.000200 10.447403 -0.842000
						CHANNELS 3 Xrotation Yrotation Zrotation
						JOINT Visor
						{
							OFFSET 0.457100 25.671204 16.550400
							CHANNELS 3 Xrotation Yrotation Zrotation
							End Site
							{
								OFFSET 0.000000 26.061493 0.000000
							}
						}
						JOINT HairMidA
						{
							OFFSET 0.459400 31.585403 8.437400
							CHANNELS 3 Xrotation Yrotation Zrotation
							End Site
							{
								OFFSET 0.000000 26.061493 0.000000
							}
						}
						JOINT HairMidB
						{
							OFFSET 0.464000 33.309204 -8.389700
							CHANNELS 3 Xrotation Yrotation Zrotation
							End Site
							{
								OFFSET 0.000000 26.061493 0.000000
							}
						}
						JOINT HairMidC
						{
							OFFSET 0.466600 27.991196 -17.375099
							CHANNELS 3 Xrotation Yrotation Zrotation
							End Site
							{
								OFFSET 0.000000 26.061493 0.000000
							}
						}
						JOINT HairMidD
						{
							OFFSET 0.467700 17.888092 -21.169500
							CHANNELS 3 Xrotation Yrotation Zrotation
							End Site
							{
								OFFSET 0.000000 26.061493 0.000000
							}
						}
						JOINT HairMidE
						{
							OFFSET 5.325700 3.514603 -14.369699
							CHANNELS 3 Xrotation Yrotation Zrotation
							End Site
							{
								OFFSET 0.000000 26.061493 0.000000
							}
						}
						JOINT HairMidF
						{
							OFFSET -4.394100 3.514603 -14.372400
							CHANNELS 3 Xrotation Yrotation Zrotation
							End Site
							{
								OFFSET 0.000000 26.061493 0.000000
							}
						}
						JOINT HairLeftA
						{
							OFFSET 15.319900 25.746506 2.623300
							CHANNELS 3 Xrotation Yrotation Zrotation
							End Site
							{
								OFFSET 0.000000 26.061493 0.000000
							}
						}
						JOINT HairLeftB
						{
							OFFSET 12.619500 29.289398 -8.731499
							CHANNELS 3 Xrotation Yrotation Zrotation
							End Site
							{
								OFFSET 0.000000 26.061493 0.000000
							}
						}
						JOINT HairLeftC
						{
							OFFSET 15.714800 15.959900 2.909800
							CHANNELS 3 Xrotation Yrotation Zrotation
							End Site
							{
								OFFSET 0.000000 26.061493 0.000000
							}
						}
						JOINT HairLeftD
						{
							OFFSET 16.101700 18.437408 -7.553200
							CHANNELS 3 Xrotation Yrotation Zrotation
							End Site
							{
								OFFSET 0.000000 26.061493 0.000000
							}
						}
						JOINT HairLeftE
						{
							OFFSET 9.731900 17.915009 -18.316799
							CHANNELS 3 Xrotation Yrotation Zrotation
							End Site
							{
								OFFSET 0.000000 26.061493 0.000000
							}
						}
						JOINT HairLeftF
						{
							OFFSET 11.204300 4.953598 -9.668100
							CHANNELS 3 Xrotation Yrotation Zrotation
							End Site
							{
								OFFSET 0.000000 26.061493 0.000000
							}
						}
						JOINT HairRightA
						{
							OFFSET -14.397900 25.746307 2.615100
							CHANNELS 3 Xrotation Yrotation Zrotation
							End Site
							{
								OFFSET 0.000000 26.061493 0.000000
							}
						}
						JOINT HairRightB
						{
							OFFSET -11.691200 29.289200 -8.738199
							CHANNELS 3 Xrotation Yrotation Zrotation
							End Site
							{
								OFFSET 0.000000 26.061493 0.000000
							}
						}
						JOINT HairRightC
						{
							OFFSET -14.792900 15.959702 2.901400
							CHANNELS 3 Xrotation Yrotation Zrotation
							End Site
							{
								OFFSET 0.000000 26.061493 0.000000
							}
						}
						JOINT HairRightD
						{
							OFFSET -15.174000 18.437195 -7.561900
							CHANNELS 3 Xrotation Yrotation Zrotation
							End Site
							{
								OFFSET 0.000000 26.061493 0.000000
							}
						}
						JOINT HairRightE
						{
							OFFSET -8.798200 17.914902 -18.322001
							CHANNELS 3 Xrotation Yrotation Zrotation
							End Site
							{
								OFFSET 0.000000 26.061493 0.000000
							}
						}
						JOINT HairRightF
						{
							OFFSET -10.275200 4.953506 -9.674099
							CHANNELS 3 Xrotation Yrotation Zrotation
							End Site
							{
								OFFSET 0.000000 26.061493 0.000000
							}
						}
					}
				}
				JOINT LeftShoulder
				{
					OFFSET 5.133500 7.341202 -1.867600
					CHANNELS 3 Xrotation Yrotation Zrotation
					JOINT LeftArm
					{
						OFFSET 8.072663 0.936867 -2.176600
						CHANNELS 3 Xrotation Yrotation Zrotation
						JOINT LeftForeArm
						{
							OFFSET 31.271999 0.000000 0.000000
							CHANNELS 3 Xrotation Yrotation Zrotation
							JOINT LeftHand
							{
								OFFSET 31.771030 0.000000 0.000000
								CHANNELS 3 Xrotation Yrotation Zrotation
								JOINT LeftHandThumb1
								{
									OFFSET 2.886520 -2.557846 4.416640
									CHANNELS 3 Xrotation Yrotation Zrotation
									JOINT LeftHandThumb2
									{
										OFFSET 2.371025 -1.368912 1.368911
										CHANNELS 3 Xrotation Yrotation Zrotation
										JOINT LeftHandThumb3
										{
											OFFSET 2.243378 -1.295212 1.295213
											CHANNELS 3 Xrotation Yrotation Zrotation
											End Site
											{
												OFFSET -0.332611 2.876945 0.020015
											}
										}
									}
								}
								JOINT LeftHandIndex1
								{
									OFFSET 8.568985 -0.641945 3.119977
									CHANNELS 3 Xrotation Yrotation Zrotation
									JOINT LeftHandIndex2
									{
										OFFSET 3.348503 0.000000 0.000000
										CHANNELS 3 Xrotation Yrotation Zrotation
										JOINT LeftHandIndex3
										{
											OFFSET 3.314552 0.000000 0.000000
											CHANNELS 3 Xrotation Yrotation Zrotation
											End Site
											{
												OFFSET -1.032898 3.075485 0.678796
											}
										}
									}
								}
								JOINT LeftHandMiddle1
								{
									OFFSET 8.124603 0.000000 0.000000
									CHANNELS 3 Xrotation Yrotation Zrotation
									JOINT LeftHandMiddle2
									{
										OFFSET 4.166275 0.000000 0.000000
										CHANNELS 3 Xrotation Yrotation Zrotation
										JOINT LeftHandMiddle3
										{
											OFFSET 3.018135 0.000000 0.000000
											CHANNELS 3 Xrotation Yrotation Zrotation
											End Site
											{
												OFFSET -1.032700 2.767982 0.617226
											}
										}
									}
								}
								JOINT LeftHandRing1
								{
									OFFSET 8.571686 -0.031357 -2.884048
									CHANNELS 3 Xrotation Yrotation Zrotation
									JOINT LeftHandRing2
									{
										OFFSET 3.671181 0.000000 0.000000
										CHANNELS 3 Xrotation Yrotation Zrotation
										JOINT LeftHandRing3
										{
											OFFSET 2.728851 0.000000 0.000000
											CHANNELS 3 Xrotation Yrotation Zrotation
											End Site
											{
												OFFSET -0.815796 2.539223 0.577389
											}
										}
									}
								}
								JOINT LeftHandPinky1
								{
									OFFSET 7.854515 -0.675232 -5.213020
									CHANNELS 3 Xrotation Yrotation Zrotation
									JOINT LeftHandPinky2
									{
										OFFSET 3.068596 0.000000 0.000000
										CHANNELS 3 Xrotation Yrotation Zrotation
										JOINT LeftHandPinky3
										{
											OFFSET 2.396042 0.000000 0.000000
											CHANNELS 3 Xrotation Yrotation Zrotation
											End Site
											{
												OFFSET -0.524597 2.267998 0.567429
											}
										}
									}
								}
							}
							JOINT LeftSleeve
							{
								OFFSET 19.684509 -0.200119 0.476146
								CHANNELS 3 Xrotation Yrotation Zrotation
								End Site
								{
									OFFSET -0.031017 25.731133 -0.002868
								}
							}
						}
					}
				}
				JOINT RightShoulder
				{
					OFFSET -4.395900 7.341202 -1.870200
					CHANNELS 3 Xrotation Yrotation Zrotation
					JOINT RightArm
					{
						OFFSET -8.071453 0.936867 -2.181100
						CHANNELS 3 Xrotation Yrotation Zrotation
						JOINT RightForeArm
						{
							OFFSET -31.272011 0.000000 0.000000
							CHANNELS 3 Xrotation Yrotation Zrotation
							JOINT RightHand
							{
								OFFSET -31.771019 0.000000 0.000000
								CHANNELS 3 Xrotation Yrotation Zrotation
								JOINT RightHandThumb1
								{
									OFFSET -2.886520 -2.557808 4.416626
									CHANNELS 3 Xrotation Yrotation Zrotation
									JOINT RightHandThumb2
									{
										OFFSET -2.371056 -1.368927 1.368928
										CHANNELS 3 Xrotation Yrotation Zrotation
										JOINT RightHandThumb3
										{
											OFFSET -2.243362 -1.295204 1.295206
											CHANNELS 3 Xrotation Yrotation Zrotation
											End Site
											{
												OFFSET 0.332642 2.876938 0.020047
											}
										}
									}
								}
								JOINT RightHandIndex1
								{
									OFFSET -8.568993 -0.641953 3.120017
									CHANNELS 3 Xrotation Yrotation Zrotation
									JOINT RightHandIndex2
									{
										OFFSET -3.348518 0.000000 0.000000
										CHANNELS 3 Xrotation Yrotation Zrotation
										JOINT RightHandIndex3
										{
											OFFSET -3.314552 0.000000 0.000000
											CHANNELS 3 Xrotation Yrotation Zrotation
											End Site
											{
												OFFSET 1.032898 3.075478 0.678804
											}
										}
									}
								}
								JOINT RightHandMiddle1
								{
									OFFSET -8.124588 0.000000 0.000000
									CHANNELS 3 Xrotation Yrotation Zrotation
									JOINT RightHandMiddle2
									{
										OFFSET -4.166275 0.000000 0.000000
										CHANNELS 3 Xrotation Yrotation Zrotation
										JOINT RightHandMiddle3
										{
											OFFSET -3.018097 0.000000 0.000000
											CHANNELS 3 Xrotation Yrotation Zrotation
											End Site
											{
												OFFSET 1.032700 2.767937 0.617197
											}
										}
									}
								}
								JOINT RightHandRing1
								{
									OFFSET -8.571747 -0.031349 -2.884061
									CHANNELS 3 Xrotation Yrotation Zrotation
									JOINT RightHandRing2
									{
										OFFSET -3.671204 0.000000 0.000000
										CHANNELS 3 Xrotation Yrotation Zrotation
										JOINT RightHandRing3
										{
											OFFSET -2.728874 0.000000 0.000000
											CHANNELS 3 Xrotation Yrotation Zrotation
											End Site
											{
												OFFSET 0.815804 2.539261 0.577413
											}
										}
									}
								}
								JOINT RightHandPinky1
								{
									OFFSET -7.854561 -0.675247 -5.212970
									CHANNELS 3 Xrotation Yrotation Zrotation
									JOINT RightHandPinky2
									{
										OFFSET -3.068550 0.000000 0.000000
										CHANNELS 3 Xrotation Yrotation Zrotation
										JOINT RightHandPinky3
										{
											OFFSET -2.395981 0.000000 0.000000
											CHANNELS 3 Xrotation Yrotation Zrotation
											End Site
											{
												OFFSET 0.524605 2.267952 0.567413
											}
										}
									}
								}
							}
							JOINT RightSleeve
							{
								OFFSET -19.684753 -0.200165 0.476065
								CHANNELS 3 Xrotation Yrotation Zrotation
								End Site
								{
									OFFSET 0.031342 25.731255 -0.002917
								}
							}
						}
					}
				}
				JOINT Hood
				{
					OFFSET 0.369700 14.447800 -5.317800
					CHANNELS 3 Xrotation Yrotation Zrotation
					JOINT Hood1
					{
						OFFSET 0.001700 -5.553802 -5.895100
						CHANNELS 3 Xrotation Yrotation Zrotation
						JOINT Hood2
						{
							OFFSET -0.000200 -8.380501 0.763600
							CHANNELS 3 Xrotation Yrotation Zrotation
							End Site
							{
								OFFSET 0.000000 8.415215 0.000000
							}
						}
					}
				}
				JOINT Left_Breast
				{
					OFFSET 5.682500 3.120102 3.188800
					CHANNELS 3 Xrotation Yrotation Zrotation
					End Site
					{
						OFFSET 0.000000 10.528564 0.000000
					}
				}
				JOINT Right_Breast
				{
					OFFSET -4.947600 3.120102 3.185900
					CHANNELS 3 Xrotation Yrotation Zrotation
					End Site
					{
						OFFSET 0.000000 10.528564 0.000000
					}
				}
				JOINT Whistle
				{
					OFFSET 0.368200 11.471298 0.095400
					CHANNELS 3 Xrotation Yrotation Zrotation
					JOINT Whistle1
					{
						OFFSET -0.002000 -6.349899 7.479800
						CHANNELS 3 Xrotation Yrotation Zrotation
						JOINT Whistle2
						{
							OFFSET -0.001300 -8.217598 4.717600
							CHANNELS 3 Xrotation Yrotation Zrotation
							End Site
							{
								OFFSET 0.000000 9.475479 0.000000
							}
						}
					}
				}
			}
		}
		JOINT Belly
		{
			OFFSET 0.212400 1.593002 3.163700
			CHANNELS 3 Xrotation Yrotation Zrotation
			End Site
			{
				OFFSET 0.000000 7.496635 0.000000
			}
		}
	}
	JOINT FitGrandmaFacialAnim_Joint
	{
		OFFSET 1.150000 -86.211197 -1.220100
		CHANNELS 3 Xrotation Yrotation Zrotation
		End Site
		{
			OFFSET 0.000000 31.666618 0.000000
		}
	}
}
MOTION
Frames: 4
Frame Time: 0.016667
-2.596030 73.169357 1.969000 11.676254 -49.425964 11.279152 -0.000000 0.000002 -0.000000 -62.309937 28.878064 43.416880 47.636745 -21.391490 3.308675 -2.466209 1.388775 -10.658898 -0.000000 -0.000002 0.000000 0.000000 -0.000002 -0.000000 0.000002 0.000000 -0.000001 -29.833696 -1.493211 -26.649721 55.567141 3.695617 -6.881577 -32.972540 -4.594153 25.476947 0.000000 -0.000000 -0.000000 -0.000001 -0.000003 0.000004 -0.000000 0.000002 -0.000002 10.972946 2.772258 -2.041643 6.100705 5.566529 -4.284681 -5.786927 6.328150 -3.046183 2.318910 9.363319 -0.265302 -4.146746 23.161902 -3.523335 -0.000001 -0.000000 -0.000000 -0.000001 -0.000000 -0.000000 -0.000001 -0.000000 -0.000000 -0.000001 -0.000000 -0.000000 -0.000001 -0.000000 -0.000000 -0.000001 -0.000000 -0.000000 -0.000001 -0.000000 -0.000000 -0.000001 -0.000000 -0.000000 -0.000001 -0.000000 -0.000000 -0.000001 -0.000000 -0.000000 -0.000001 -0.000000 -0.000000 -0.000001 -0.000000 -0.000000 -0.000001 -0.000000 -0.000000 -0.000001 -0.000000 -0.000000 -0.000001 -0.000000 -0.000000 -0.000001 -0.000000 -0.000000 -0.000001 -0.000000 -0.000000 -0.000001 -0.000000 -0.000000 -0.000001 -0.000000 -0.000000 -1.875339 -16.181741 -2.870470 -10.644667 2.164764 -45.510626 -22.862390 -25.786245 -15.871678 2.491056 -2.511885 6.860505 18.457949 -9.513835 13.216583 -1.150197 11.255348 -8.400842 -0.000001 0.000004 -0.000003 -1.232791 -5.771945 -0.192340 0.133952 -0.197647 -4.602124 0.000002 -0.000001 0.000004 1.884734 4.663374 -4.597415 0.476691 -1.009858 -12.986436 0.000001 0.000003 -0.000004 3.024617 7.938947 -14.103495 -0.708003 -0.566217 -18.895718 -0.000003 0.000001 -0.000001 2.010388 6.305970 -22.386529 -0.815385 -0.210765 -16.746485 0.000002 0.000003 0.000001 0.000002 0.000000 0.000000 -5.074769 24.344968 1.482929 6.642449 -34.735006 57.610433 -21.032050 44.833867 19.961759 -0.087245 35.608477 7.474304 55.149536 18.649565 -29.698267 -0.442551 -14.180541 7.313137 0.000001 0.000001 0.000001 5.673362 7.585026 36.844161 1.050466 3.824460 68.900257 0.000000 0.000001 0.000001 -0.125704 1.886098 45.000770 -1.169016 3.204686 68.417684 -0.000001 0.000000 -0.000005 -5.312011 1.216627 58.508828 -0.745199 1.667577 48.011247 0.000000 0.000003 -0.000004 -7.756798 -9.376484 47.264011 -0.526056 1.541610 45.600518 -0.000003 -0.000001 0.000002 -0.000001 0.000001 0.000001 -0.000000 0.000001 -0.000000 -0.000000 0.000001 -0.000000 -0.000000 0.000001 -0.000000 -0.000000 0.000001 -0.000000 -0.000000 0.000001 -0.000000 -0.000001 0.000001 -0.000000 -0.000000 0.000001 -0.000001 -0.000000 0.000001 -0.000001 0.000001 -0.000001 -0.000000 -0.000000 0.000002 -0.000000 
-2.603548 73.234207 1.856975 11.478822 -49.734214 11.065080 0.000000 -0.000003 0.000000 -62.081078 28.918556 43.653853 47.368824 -21.326340 3.296588 -2.348111 1.410798 -10.814701 0.000000 0.000000 -0.000000 0.000000 0.000001 -0.000001 -0.000004 -0.000000 -0.000000 -29.855638 -1.565058 -26.490957 55.522027 3.855048 -6.870382 -32.868366 -4.382972 25.288581 0.000000 0.000002 0.000000 -0.000003 0.000003 0.000001 0.000002 -0.000000 -0.000002 10.951758 2.772878 -2.052813 5.917135 5.588686 -4.389565 -5.960382 6.358700 -3.163039 2.261340 9.594046 -0.194444 -3.771935 23.396941 -3.738610 0.000000 0.000000 0.000000 0.000000 0.000000 0.000000 0.000000 0.000000 0.000000 0.000000 0.000000 0.000000 0.000000 0.000000 0.000000 0.000000 0.000000 0.000000 0.000000 0.000000 0.000000 0.000000 0.000000 0.000000 0.000000 0.000000 0.000000 0.000000 0.000000 0.000000 0.000000 0.000000 0.000000 0.000000 0.000000 0.000000 0.000000 0.000000 0.000000 0.000000 0.000000 0.000000 0.000000 0.000000 0.000000 0.000000 0.000000 0.000000 0.000000 0.000000 0.000000 0.000000 0.000000 0.000000 0.000000 0.000000 0.000000 -1.850130 -16.049198 -2.794401 -9.956437 2.817355 -45.285903 -23.315170 -27.943272 -17.248412 2.184511 -1.065435 7.247048 18.457975 -9.513831 13.216577 -1.150192 11.255325 -8.400834 -0.000001 0.000002 -0.000001 -1.232791 -5.771939 -0.192350 0.133961 -0.197666 -4.602088 0.000004 0.000000 0.000002 1.884742 4.663371 -4.597394 0.476675 -1.009838 -12.986435 0.000004 -0.000002 -0.000000 3.024603 7.938929 -14.103465 -0.708005 -0.566201 -18.895746 -0.000001 -0.000002 -0.000002 2.010406 6.305934 -22.386560 -0.815410 -0.210740 -16.746471 0.000002 -0.000000 0.000000 0.000005 -0.000004 0.000003 -5.082254 24.342369 1.499011 5.825075 -34.063786 57.690148 -20.478435 43.293957 19.040908 0.231100 35.997166 7.762148 55.149536 18.649558 -29.698260 -0.442552 -14.180537 7.313138 -0.000001 -0.000001 0.000000 5.673367 7.585019 36.844165 1.050468 3.824462 68.900250 -0.000001 -0.000001 -0.000001 -0.125700 1.886092 45.000773 -1.169021 3.204691 68.417691 0.000001 -0.000000 -0.000002 -5.312006 1.216631 58.508828 -0.745198 1.667576 48.011247 0.000000 -0.000001 0.000001 -7.756793 -9.376485 47.264007 -0.526055 1.541612 45.600518 0.000002 -0.000001 0.000001 0.000002 -0.000001 -0.000001 -0.000001 0.000000 -0.000000 -0.000001 0.000000 -0.000000 -0.000001 0.000000 -0.000000 -0.000001 0.000000 -0.000000 -0.000001 0.000000 -0.000000 -0.000001 0.000000 -0.000000 -0.000001 0.000000 -0.000000 -0.000001 0.000000 -0.000000 0.000002 -0.000000 -0.000000 0.000000 -0.000003 0.000000 
-2.619165 73.298119 1.751310 11.344900 -50.081556 10.904308 -0.000000 -0.000000 0.000000 -61.875818 28.971852 43.928679 47.098826 -21.260111 3.270720 -2.246742 1.443369 -10.980196 -0.000000 0.000000 -0.000000 -0.000001 0.000001 0.000000 -0.000002 0.000000 -0.000001 -29.923342 -1.613540 -26.329230 55.470920 4.031656 -6.853320 -32.755050 -4.155806 25.092592 -0.000000 0.000000 0.000000 0.000001 0.000003 -0.000003 0.000001 0.000002 -0.000000 10.927898 2.772847 -2.053516 5.754460 5.620916 -4.465461 -6.114668 6.395256 -3.246988 2.473462 9.737924 -0.469673 -4.007679 23.494372 -3.699872 0.000000 0.000000 -0.000000 0.000000 0.000000 -0.000000 0.000000 0.000000 -0.000000 0.000000 0.000000 -0.000000 0.000000 0.000000 -0.000000 0.000000 0.000000 -0.000000 0.000000 0.000000 -0.000000 0.000000 0.000000 -0.000000 0.000000 0.000000 -0.000000 0.000000 0.000000 -0.000000 0.000000 0.000000 -0.000000 0.000000 0.000000 -0.000000 0.000000 0.000000 -0.000000 0.000000 0.000000 -0.000000 0.000000 0.000000 -0.000000 0.000000 0.000000 -0.000000 0.000000 0.000000 -0.000000 0.000000 0.000000 -0.000000 0.000000 0.000000 -0.000000 -1.856182 -16.125033 -2.793417 -9.304245 3.610398 -44.990593 -23.777471 -29.920692 -18.575198 1.944019 0.057011 7.820662 18.457966 -9.513813 13.216599 -1.150193 11.255284 -8.400866 -0.000001 -0.000000 0.000001 -1.232766 -5.771947 -0.192335 0.133944 -0.197688 -4.602114 0.000003 -0.000002 0.000002 1.884736 4.663354 -4.597411 0.476690 -1.009832 -12.986415 0.000002 -0.000001 0.000005 3.024622 7.938912 -14.103479 -0.708024 -0.566190 -18.895756 0.000001 -0.000003 0.000003 2.010385 6.305947 -22.386529 -0.815364 -0.210751 -16.746473 -0.000000 0.000000 0.000002 0.000001 0.000000 0.000001 -5.081650 24.149913 1.470717 7.290172 -35.178923 57.904500 -21.255101 45.591185 20.253102 -0.452737 34.561543 8.086126 55.149536 18.649562 -29.698264 -0.442552 -14.180539 7.313139 -0.000001 -0.000000 -0.000001 5.673368 7.585021 36.844161 1.050466 3.824462 68.900250 -0.000000 0.000000 0.000003 -0.125703 1.886099 45.000770 -1.169018 3.204691 68.417691 -0.000002 0.000000 -0.000005 -5.312006 1.216633 58.508835 -0.745197 1.667579 48.011251 0.000001 -0.000001 -0.000003 -7.756802 -9.376482 47.264007 -0.526055 1.541611 45.600515 0.000001 -0.000000 -0.000002 -0.000006 -0.000000 0.000002 0.000001 -0.000001 -0.000000 0.000001 -0.000001 -0.000000 0.000001 -0.000001 -0.000000 0.000001 -0.000001 -0.000000 0.000001 -0.000001 -0.000000 0.000001 -0.000001 0.000001 -0.000001 0.000001 -0.000000 -0.000001 0.000001 -0.000000 -0.000000 0.000003 -0.000000 -0.000000 -0.000000 0.000000 
-2.639299 73.362953 1.646537 11.199166 -50.412192 10.768118 -0.000000 0.000001 -0.000000 -61.597077 29.035957 44.088127 46.820298 -21.144702 3.311886 -2.158098 1.497844 -11.200299 0.000000 0.000000 0.000000 -0.000000 -0.000002 0.000001 -0.000000 -0.000001 0.000001 -29.978885 -1.647460 -26.203867 55.431148 4.201879 -6.837532 -32.653837 -3.940761 24.904494 -0.000000 -0.000002 0.000000 0.000001 0.000003 0.000002 0.000005 0.000001 0.000001 10.917465 2.761204 -2.062794 5.661715 5.628860 -4.526592 -6.202367 6.409815 -3.316669 2.263844 9.977095 -0.273079 -3.343279 23.780209 -4.097046 -0.000001 0.000000 -0.000000 -0.000001 0.000000 -0.000000 -0.000001 0.000000 -0.000000 -0.000001 0.000000 -0.000000 -0.000001 0.000000 -0.000000 -0.000001 0.000000 -0.000000 -0.000001 0.000000 -0.000000 -0.000001 0.000000 -0.000000 -0.000001 0.000000 -0.000000 -0.000001 0.000000 -0.000000 -0.000001 0.000000 -0.000000 -0.000001 0.000000 -0.000000 -0.000001 0.000000 -0.000000 -0.000001 0.000000 -0.000000 -0.000001 0.000000 -0.000000 -0.000001 0.000000 -0.000000 -0.000001 0.000000 -0.000000 -0.000001 0.000000 -0.000000 -0.000001 0.000000 -0.000000 -1.837226 -16.093992 -2.699860 -8.760470 4.176582 -44.764974 -24.203696 -31.576866 -19.708431 1.849844 0.895195 8.346070 18.457963 -9.513834 13.216583 -1.150189 11.255334 -8.400842 -0.000001 -0.000000 0.000001 -1.232778 -5.771950 -0.192323 0.133953 -0.197664 -4.602147 0.000001 -0.000002 0.000002 1.884740 4.663376 -4.597430 0.476669 -1.009817 -12.986397 -0.000004 -0.000003 -0.000000 3.024636 7.938928 -14.103476 -0.708012 -0.566173 -18.895763 -0.000000 -0.000003 0.000003 2.010383 6.305949 -22.386549 -0.815378 -0.210757 -16.746490 0.000004 0.000003 -0.000000 0.000001 0.000001 0.000001 -5.039715 24.119901 1.323478 8.594059 -36.353969 58.117069 -22.083499 47.698452 21.417672 -0.802660 33.303821 8.194910 55.149536 18.649565 -29.698257 -0.442553 -14.180536 7.313142 0.000001 0.000002 -0.000000 5.673363 7.585027 36.844158 1.050468 3.824462 68.900250 0.000002 -0.000001 -0.000003 -0.125710 1.886106 45.000766 -1.169019 3.204698 68.417691 0.000002 0.000002 -0.000005 -5.312012 1.216636 58.508828 -0.745199 1.667575 48.011247 0.000001 0.000000 -0.000004 -7.756800 -9.376485 47.264007 -0.526052 1.541611 45.600518 -0.000002 -0.000001 0.000000 0.000002 -0.000000 -0.000000 0.000003 -0.000001 0.000001 0.000003 -0.000001 0.000001 0.000003 -0.000001 0.000001 0.000003 -0.000001 0.000001 0.000003 -0.000001 0.000001 0.000002 -0.000001 0.000000 0.000000 0.000002 -0.000001 0.000000 0.000002 -0.000001 0.000000 0.000000 0.000001 -0.000000 0.000001 -0.000000 
